<?xml version="1.0" encoding="UTF-8" standalone="no"?>
<svg
   xmlns:dc="http://purl.org/dc/elements/1.1/"
   xmlns:cc="http://creativecommons.org/ns#"
   xmlns:rdf="http://www.w3.org/1999/02/22-rdf-syntax-ns#"
   xmlns:svg="http://www.w3.org/2000/svg"
   xmlns="http://www.w3.org/2000/svg"
   xmlns:xlink="http://www.w3.org/1999/xlink"
   xmlns:sodipodi="http://sodipodi.sourceforge.net/DTD/sodipodi-0.dtd"
   xmlns:inkscape="http://www.inkscape.org/namespaces/inkscape"
   id="svg2"
   height="100%"
   width="100%"
   version="1.1"
   viewBox="0 0 254.23729 254.23729"
   inkscape:version="0.91 r13725"
   sodipodi:docname="folders2.svg">
  <metadata
     id="metadata73">
    <rdf:RDF>
      <cc:Work
         rdf:about="">
        <dc:format>image/svg+xml</dc:format>
        <dc:type
           rdf:resource="http://purl.org/dc/dcmitype/StillImage" />
        <dc:title></dc:title>
      </cc:Work>
    </rdf:RDF>
  </metadata>
  <sodipodi:namedview
     pagecolor="#ffffff"
     bordercolor="#666666"
     borderopacity="1"
     objecttolerance="10"
     gridtolerance="10"
     guidetolerance="10"
     inkscape:pageopacity="0"
     inkscape:pageshadow="2"
     inkscape:window-width="1631"
     inkscape:window-height="1026"
     id="namedview71"
     showgrid="false"
     inkscape:zoom="0.92826666"
     inkscape:cx="127.11865"
     inkscape:cy="127.11864"
     inkscape:window-x="49"
     inkscape:window-y="24"
     inkscape:window-maximized="1"
     inkscape:current-layer="svg2" />
  <defs
     id="defs4">
    <pattern
       inkscape:collect="always"
       xlink:href="#pattern14303"
       id="pattern4207"
       patternTransform="matrix(0.91768,0,0,0.90958,-53.223402,-17.375923)" />
    <linearGradient
       id="linearGradient13640">
      <stop
         id="stop7"
         stop-color="#3a3b60"
         offset="0" />
      <stop
         id="stop9"
         stop-color="#828295"
         offset="1" />
    </linearGradient>
    <linearGradient
       id="linearGradient1549">
      <stop
         id="stop12"
         stop-color="#fff"
         stop-opacity=".6455"
         offset="0" />
      <stop
         id="stop14"
         stop-color="#fff"
         stop-opacity="0"
         offset="1" />
    </linearGradient>
    <linearGradient
       id="linearGradient1561"
       x2="0"
       y1=".27344"
       y2=".28906"
       spreadMethod="reflect">
      <stop
         id="stop17"
         stop-color="#486dc9"
         offset="0" />
      <stop
         id="stop19"
         stop-color="#4788ff"
         offset="1" />
    </linearGradient>
    <linearGradient
       id="linearGradient2852"
       y2=".44531"
       xlink:href="#linearGradient1549"
       y1=".13281"
       x2=".50955"
       x1=".40127" />
    <linearGradient
       id="linearGradient2858"
       y2=".50781"
       xlink:href="#linearGradient1549"
       y1=".070310"
       x2=".67251"
       x1=".51462" />
    <pattern
       id="pattern13664"
       width="254.84764"
       patternUnits="userSpaceOnUse"
       patternTransform="translate(-1.7313 -1.7313)"
       height="255.54016">
      <path
         id="path54"
         fill-rule="evenodd"
         d="m0 0h254.85v255.54h-254.85z"
         fill="url(#linearGradient1561)" />
      <path
         id="path56"
         fill-rule="evenodd"
         fill-opacity=".47619"
         d="m14.273 69.402-5.4253 15.921c15.974 34.339 30.141 77.107 23.51 119.87l5.4253 10.302 173.61-48.699c-3.9183-37.149-1.507-78.98-25.318-117.07l-122.07 23.413-13.563-10.302-36.169 6.5557z"
         fill="#9cd9ff" />
      <path
         id="path58"
         fill-rule="evenodd"
         d="m177.86 55.121c-37.935 7.7832-76.125 14.652-114.16 22.094-7.6327-2.3606-12.415-12.97-21.342-8.9012l-25.377 4.5886c-1.6526 5.835-6.2567 12.272-1.6735 17.952 15.742 35.424 25.993 74.649 20.767 113.61 0.68088 5.4631 6.0452 7.6846 10.406 4.3125 53.435-14.999 106.88-29.978 160.31-44.969-3.1189-36.882-3.4558-75.876-22.688-108.78-1.9256-1.1353-4.2122-0.04694-6.25 0.09375z"
         fill="url(#linearGradient2852)" />
      <path
         id="path60"
         fill-rule="evenodd"
         fill-opacity=".51821"
         d="m194.94 68.906-101.8 23.546-13.85 16.62-44.321 6.9252-6.2327 9.0028-2.0776 5.5402c8.0794 28.624 9.9261 60.018 5.5402 73.407l4.8476 10.388 173.13-46.399c-5.0785-33.01-1.8467-65.328-15.235-99.03z"
         fill="#537ed2" />
      <path
         id="path62"
         fill-rule="evenodd"
         fill-opacity=".47451"
         d="m38.098 214.89 9.0422-13.111c-10.549-26.847-8.4394-60.25-4.5211-80.541l40.69-6.5557 13.563-15.921 122.97-29.032c-5.7267 29.657-7.8366 49.948 4.5211 83.351l-9.0422 14.048-177.23 47.763z"
         fill="#9cd9ff" />
      <path
         id="path64"
         fill-rule="evenodd"
         d="m211.55 74.861c-37.315 9.4469-75.014 17.744-112.47 26.781-5.328 5.3622-9.2469 13.293-16.143 16.441l-36.763 5.9344c-4.1974 25.841-4.0409 52.989 5.4062 77.719-5.4375 5.9735-3.8284 6.5237 3.262 3.7821l157.89-42.563c2.4455-5.1123 9.4016-9.7385 5.6303-15.92-8.3924-23.255-8.5446-48.792-3.474-72.798l-3.3438 0.625z"
         fill="url(#linearGradient2858)" />
    </pattern>
    <pattern
       id="pattern14303"
       width="319.48441"
       patternUnits="userSpaceOnUse"
       patternTransform="translate(-21.12 25.008)"
       height="313.76666">
      <path
         id="path67"
         d="m0 0h319.48v313.77h-319.48z"
         fill="url(#pattern14302)" />
    </pattern>
    <pattern
       id="pattern14302"
       xlink:href="#pattern13664"
       patternTransform="matrix(1.2536 0 0 1.2279 .0000032898 .000031941)" />
    <clipPath
       id="clipPath3109"
       clipPathUnits="userSpaceOnUse">
      <rect
         id="rect3111"
         height="254.24"
         width="254.24"
         y="-1.0593"
         x="-1.589"
         fill="#fff" />
    </clipPath>
    <linearGradient
       id="linearGradient3113"
       x1=".30344"
       xlink:href="#linearGradient1561"
       spreadMethod="reflect"
       gradientUnits="userSpaceOnUse"
       x2=".30344"
       gradientTransform="matrix(0.99864,0,0,1.0014,-0.1156,0.49112)"
       y1="68.969"
       y2="72.955" />
    <radialGradient
       id="radialGradient3115"
       fx="55.845"
       fy="391.86"
       gradientUnits="userSpaceOnUse"
       cy="389.54"
       cx="56.713"
       gradientTransform="matrix(2.0654,0,0,0.48417,-0.1156,0.49112)"
       r="73.764">
      <stop
         id="stop71"
         stop-opacity=".39683"
         offset="0" />
      <stop
         id="stop73"
         stop-color="#999a9a"
         stop-opacity="0"
         offset="1" />
    </radialGradient>
    <linearGradient
       id="linearGradient3117"
       y2="122.78"
       xlink:href="#linearGradient1549"
       gradientUnits="userSpaceOnUse"
       x2="102"
       gradientTransform="matrix(1.1141,0,0,0.89757,-0.1156,0.49112)"
       y1="68.512"
       x1="83.2" />
    <linearGradient
       id="linearGradient3119"
       y2="147.27"
       xlink:href="#linearGradient1549"
       gradientUnits="userSpaceOnUse"
       x2="142.16"
       gradientTransform="matrix(1.1507,0,0,0.86905,-0.1156,0.49112)"
       y1="80.383"
       x1="118.02" />
    <linearGradient
       id="linearGradient3121"
       y2="132.61"
       gradientUnits="userSpaceOnUse"
       x2="34.035"
       gradientTransform="matrix(1.2616,0,0,0.79267,1.589,1.0593)"
       y1="236.58"
       x1="175.38">
      <stop
         id="stop32"
         stop-opacity=".30159"
         offset="0" />
      <stop
         id="stop34"
         stop-color="#999a9a"
         stop-opacity="0"
         offset="1" />
    </linearGradient>
    <linearGradient
       id="linearGradient3123"
       y2="135.91"
       xlink:href="#linearGradient13640"
       spreadMethod="reflect"
       gradientUnits="userSpaceOnUse"
       x2="107.72"
       gradientTransform="matrix(1.0754,0,0,0.92993,1.589,1.0593)"
       y1="99.547"
       x1="113.09" />
    <linearGradient
       id="linearGradient3125"
       y2="152.66"
       xlink:href="#linearGradient13640"
       spreadMethod="reflect"
       gradientUnits="userSpaceOnUse"
       x2="147.55"
       gradientTransform="matrix(1.062,0,0,0.94158,1.589,1.0593)"
       y1="160.8"
       x1="141.76" />
    <linearGradient
       id="linearGradient3127"
       y2="110.67"
       xlink:href="#linearGradient13640"
       gradientUnits="userSpaceOnUse"
       x2="130.25"
       gradientTransform="matrix(0.88256039,0,0,0.94578128,-33.842,-40.1227)"
       y1="190.44"
       x1="193.94" />
    <linearGradient
       id="linearGradient3129"
       y2="143.85"
       gradientUnits="userSpaceOnUse"
       x2="184.08"
       gradientTransform="matrix(0.88298252,0,0,0.94532649,-33.308,-40.1227)"
       y1="177.63"
       x1="249.13">
      <stop
         id="stop22"
         stop-color="#fff"
         offset="0" />
      <stop
         id="stop24"
         stop-color="#fff"
         stop-opacity="0"
         offset="1" />
    </linearGradient>
    <linearGradient
       id="linearGradient3131"
       y2="112.81"
       xlink:href="#linearGradient13640"
       gradientUnits="userSpaceOnUse"
       x2="236.9"
       gradientTransform="matrix(0.88298252,0,0,0.94532649,-33.308,-40.1227)"
       y1="192.88"
       x1="170.25" />
    <linearGradient
       id="linearGradient3133"
       y2="203.77"
       xlink:href="#linearGradient13640"
       spreadMethod="reflect"
       gradientUnits="userSpaceOnUse"
       x2="179.45"
       gradientTransform="matrix(1.1119,0,0,0.89937,1.589,1.0593)"
       y1="216.47"
       x1="172.77" />
    <linearGradient
       id="linearGradient3135"
       y2="194.62"
       spreadMethod="reflect"
       gradientUnits="userSpaceOnUse"
       x2="154.91"
       gradientTransform="matrix(1.1119,0,0,0.89937,1.589,1.0593)"
       y1="182.41"
       x1="165.53">
      <stop
         id="stop27"
         stop-color="#82e240"
         offset="0" />
      <stop
         id="stop29"
         stop-color="#054700"
         offset="1" />
    </linearGradient>
    <linearGradient
       id="linearGradient3137"
       y2="228.81"
       gradientUnits="userSpaceOnUse"
       x2="179.29"
       gradientTransform="matrix(1.1119,0,0,-0.89937,5.4323,423.5393)"
       y1="208.3"
       x1="178.5">
      <stop
         id="stop42"
         stop-color="#82e240"
         stop-opacity="0"
         offset="0" />
      <stop
         id="stop44"
         stop-color="#057c00"
         stop-opacity=".78042"
         offset="1" />
    </linearGradient>
    <linearGradient
       id="linearGradient3139"
       y2="197.53"
       gradientUnits="userSpaceOnUse"
       x2="255.89"
       gradientTransform="matrix(0.86645,0,0,1.1541,1.589,1.0593)"
       y1="185.99"
       x1="254.8">
      <stop
         id="stop37"
         stop-color="#3a3b60"
         stop-opacity=".76455"
         offset="0" />
      <stop
         id="stop39"
         stop-color="#828295"
         stop-opacity="0"
         offset="1" />
    </linearGradient>
  </defs>
  <path
     id="path79"
     d="m -6.6069,234.11112 -78.809,-71.566 545.35,-72.478 69.117,91.51 -535.65,52.534 z"
     style="fill:url(#radialGradient3115);fill-rule:evenodd"
     inkscape:connector-curvature="0" />
  <path
     id="path81"
     d="m 15.8814,56.17212 -5.4253,15.921 c 15.974,34.339 30.141,77.107 23.51,119.87 l 5.4253,10.302 173.61,-48.699 c -3.92,-37.14 -1.51,-78.971 -25.32,-117.06 l -122.07,23.417 -13.564,-10.302 -36.169,6.556 z"
     inkscape:connector-curvature="0"
     style="fill:#9cd9ff;fill-opacity:0.47619001;fill-rule:evenodd" />
  <path
     id="path83"
     d="m 179.4744,41.89112 c -37.94,7.783 -76.13,14.652 -114.16,22.094 -7.63,-2.361 -12.412,-12.97 -21.339,-8.901 l -25.377,4.5886 c -1.6526,5.835 -6.2567,12.272 -1.6735,17.952 15.742,35.424 25.993,74.649 20.767,113.61 0.68088,5.4631 6.0452,7.6846 10.406,4.3125 53.435,-14.999 106.88,-29.978 160.31,-44.969 -3.1189,-36.882 -3.4558,-75.876 -22.688,-108.78 -1.9256,-1.1353 -4.2122,-0.04694 -6.25,0.09375 z"
     style="fill:url(#linearGradient3117);fill-rule:evenodd"
     inkscape:connector-curvature="0" />
  <path
     id="path85"
     d="m 196.5544,55.67512 -101.8,23.546 -13.852,16.621 -44.321,6.9252 -6.2327,9.0028 -2.0776,5.5402 c 8.0794,28.624 9.9261,60.018 5.5402,73.407 l 4.8476,10.388 173.13,-46.399 c -5.0785,-33.01 -1.8467,-65.328 -15.235,-99.03 z"
     inkscape:connector-curvature="0"
     style="fill:#537ed2;fill-opacity:0.51821002;fill-rule:evenodd" />
  <path
     id="path87"
     d="m 39.7074,201.66112 9.0422,-13.111 c -10.549,-26.85 -8.44,-60.25 -4.521,-80.54 l 40.69,-6.5557 13.563,-15.921 122.97,-29.032 c -5.7267,29.657 -7.8366,49.948 4.5211,83.351 l -9.0422,14.048 -177.23,47.763 z"
     inkscape:connector-curvature="0"
     style="fill:#9cd9ff;fill-opacity:0.47451004;fill-rule:evenodd" />
  <path
     id="path89"
     d="m 213.1644,61.63112 c -37.315,9.4469 -75.014,17.744 -112.47,26.781 -5.328,5.3622 -9.2469,13.293 -16.143,16.441 l -36.763,5.9344 c -4.1974,25.841 -4.0409,52.989 5.4062,77.719 -5.4375,5.9735 -3.8284,6.5237 3.262,3.7821 l 157.89,-42.563 c 2.4455,-5.1123 9.4016,-9.7385 5.6303,-15.92 -8.3924,-23.255 -8.5446,-48.792 -3.474,-72.798 l -3.3438,0.625 z"
     style="fill:url(#linearGradient3119);fill-rule:evenodd"
     inkscape:connector-curvature="0" />
  <path
     inkscape:connector-curvature="0"
     style="fill:url(#linearGradient3121);fill-rule:evenodd"
     d="m 16.907,66.1103 c -27.971,0 -35.674,24.162 -17.173,53.938 18.501,29.775 56.231,53.938 84.202,53.938 14.51,0 23.422,-6.5854 26.187,-17 l 12.301,4.1562 0.0194,0.0312 c 26.203,19.659 59.39,36.277 81.916,46.688 0.0254,0.007 0.0372,-0.007 0.0625,0 2.9666,1.4165 6.2182,3.0372 8.9102,4.2812 12.768,3.5452 11.615,-13.271 2.8473,-20.312 -2.4718,-1.1578 -5.9209,-2.8277 -8.9415,-4.2812 -2.2846,-1.0701 -5.5214,-2.6429 -8.2785,-3.9688 -0.2852,-0.13683 -0.6403,-0.29959 -0.92811,-0.4375 -20.255,-9.7495 -50.646,-24.611 -74.844,-31.031 0.13593,0.16897 0.15627,0.33099 0.27943,0.5 l -12.977,-8.5625 c -1.0967,-7.2556 -4.0301,-15.337 -9.4127,-24 -18.489,-29.787 -56.187,-53.949 -84.159,-53.949 z"
     id="path91" />
  <path
     inkscape:connector-curvature="0"
     style="fill:url(#linearGradient3123);fill-rule:evenodd"
     d="m 68.728,100.0493 c -10.896,27.005 -1.2149,60.302 25.175,70.04 26.39,9.7378 56.63,-4.2608 67.525,-31.266 0.39534,-0.97988 0.69118,-1.9715 1.0252,-2.9577 -10.686,22.031 -38.399,32.402 -63.506,23.138 -26.125,-9.64 -36.582,-40.352 -26.939,-64.25 0.9138,-2.2649 2.0217,-4.3892 3.2648,-6.4251 -2.5873,3.5678 -4.8282,7.4666 -6.5449,11.721 z"
     id="path93" />
  <path
     inkscape:connector-curvature="0"
     style="fill:url(#linearGradient3125);fill-rule:evenodd"
     d="m 145.009,154.7893 18.697,8.0128 5.3743,-6.6963 -13.133,-14.644 -10.937,13.328 z"
     id="path95" />
  <path
     inkscape:connector-curvature="0"
     style="fill:url(#pattern4207);fill-rule:evenodd;stroke:url(#linearGradient3127);stroke-width:2.50003242"
     d="m 163.2206,116.33416 a 47.060466,50.532626 0 1 0 -94.117258,0 47.060466,50.532626 0 1 0 94.117258,0 z"
     id="path97" />
  <path
     inkscape:connector-curvature="0"
     style="fill:url(#linearGradient3129);fill-rule:evenodd;stroke:url(#linearGradient3131);stroke-width:3.75004888"
     d="m 163.7546,116.33416 a 47.060466,50.532626 0 1 0 -94.117258,0 47.060466,50.532626 0 1 0 94.117258,0 z"
     id="path99" />
  <path
     inkscape:connector-curvature="0"
     style="fill:url(#linearGradient3133);fill-rule:evenodd"
     d="m 172.079,156.2093 c 0.73385,4.009 -2.18,8.0829 -6.3723,9.0164 13.986,19.668 36.848,36.314 52.911,46.728 10.565,3.5452 19.884,-13.258 15.491,-20.299 -13.5,-8.9192 -38.71,-28.037 -62.031,-35.445 z"
     id="path101" />
  <path
     inkscape:connector-curvature="0"
     style="fill:url(#linearGradient3135);fill-rule:evenodd"
     d="m 165.779,151.9293 c 0.73385,4.009 -2.18,8.0829 -6.3723,9.0164 13.986,19.668 36.848,36.314 52.911,46.728 10.565,3.5452 19.884,-13.258 15.491,-20.299 -13.5,-8.9192 -38.71,-28.037 -62.031,-35.445 z"
     id="path103" />
  <path
     inkscape:connector-curvature="0"
     style="fill:url(#linearGradient3137);fill-rule:evenodd"
     d="m 169.6223,272.6693 c 0.73385,-4.009 -2.18,-8.0829 -6.3723,-9.0164 13.986,-19.668 36.848,-36.314 52.911,-46.728 10.565,-3.5452 19.884,13.258 15.491,20.299 -13.5,8.9192 -38.71,28.037 -62.031,35.445 z"
     id="path105" />
  <path
     inkscape:connector-curvature="0"
     style="fill:url(#linearGradient3139);fill-rule:evenodd"
     d="m 225.209,212.9093 c -1.2573,-0.13392 -2.5544,-0.006 -3.875,0.4375 -1.9277,1.2497 -4.1848,2.8576 -6.2812,4.2812 10.552,-3.5012 19.857,13.247 15.469,20.281 2.1144,-1.4515 4.5309,-3.1248 6.2812,-4.2812 3.8433,-6.1612 -2.7924,-19.781 -11.594,-20.719 z m 5.3125,25 c -2.2101,1.4602 -5.1594,3.4955 -7.9375,5.4062 2.9614,-2.0115 5.405,-3.6676 7.9375,-5.4062 z"
     id="path107" />
</svg>
